<svg xmlns="http://www.w3.org/2000/svg" viewBox="0 0 50 50" enable-background="new 0 0 50 50"><path fill-rule="evenodd" clip-rule="evenodd" fill="#181616" d="M 25.053 0.088 C 11.193 0.088 0.006 11.524 0.006 25.691 C 0.006 36.957 7.185 46.517 17.204 49.93 C 18.541 50.101 18.875 49.418 18.875 48.735 L 18.875 44.298 C 11.862 45.834 10.359 40.883 10.359 40.883 C 9.189 37.982 7.52 37.128 7.52 37.128 C 5.181 35.591 7.686 35.591 7.686 35.591 C 10.191 35.763 11.528 38.152 11.528 38.152 C 13.697 42.078 17.372 40.883 18.875 40.2 C 19.042 38.493 19.709 37.47 20.544 36.788 C 15.034 36.103 9.189 33.885 9.189 24.155 C 9.189 21.425 10.191 19.035 11.694 17.328 C 11.361 16.644 10.526 14.084 11.862 10.5 C 11.862 10.5 14.032 9.817 18.707 13.059 C 20.71 12.548 22.882 12.207 25.053 12.207 C 27.223 12.207 29.394 12.548 31.398 13.059 C 36.24 9.817 38.243 10.5 38.243 10.5 C 39.58 14.084 38.744 16.644 38.411 17.328 C 40.081 19.035 40.916 21.425 40.916 24.155 C 40.916 34.055 35.072 36.103 29.561 36.788 C 30.396 37.64 31.23 39.175 31.23 41.566 L 31.23 48.564 C 31.23 49.247 31.731 50.101 32.901 49.759 C 42.92 46.346 49.933 36.788 49.933 25.521 C 50.1 11.524 38.912 0.088 25.053 0.088 Z"/></svg>

